STARTFONT 2.1
FONT -FontForge-Mixedsys-Normal-R-Normal--15-140-75-75-C-80-ISO10646-1
SIZE 14 75 75
FONTBOUNDINGBOX 8 15 0 -3
STARTPROPERTIES 32
FOUNDRY "FontForge"
FAMILY_NAME "Mixedsys"
WEIGHT_NAME "Normal"
SLANT "R"
SETWIDTH_NAME "Normal"
ADD_STYLE_NAME ""
PIXEL_SIZE 15
POINT_SIZE 140
RESOLUTION_X 75
RESOLUTION_Y 75
SPACING "C"
AVERAGE_WIDTH 80
CHARSET_REGISTRY "ISO10646"
CHARSET_ENCODING "1"
FONTNAME_REGISTRY ""
CHARSET_COLLECTIONS "ISO10646-1"
FONT_VERSION "001.000"
FONT_ASCENT 12
FONT_DESCENT 3
UNDERLINE_POSITION -2
UNDERLINE_THICKNESS 1
X_HEIGHT 6
CAP_HEIGHT 8
RAW_ASCENT 800
RAW_DESCENT 200
NORM_SPACE 8
RELATIVE_WEIGHT 40
RELATIVE_SETWIDTH 50
FIGURE_WIDTH 8
AVG_LOWERCASE_WIDTH 80
AVG_UPPERCASE_WIDTH "80"
_GBDFED_INFO "Edited with gbdfed 1.6."
ENDPROPERTIES
CHARS 224
STARTCHAR space
ENCODING 32
SWIDTH 548 0
DWIDTH 8 0
BBX 8 15 0 -3
BITMAP
00
00
00
00
00
00
00
00
00
00
00
00
00
00
00
ENDCHAR
STARTCHAR exclam
ENCODING 33
SWIDTH 548 0
DWIDTH 8 0
BBX 8 15 0 -3
BITMAP
00
00
00
18
3C
3C
3C
18
18
00
18
18
00
00
00
ENDCHAR
STARTCHAR quotedbl
ENCODING 34
SWIDTH 548 0
DWIDTH 8 0
BBX 8 15 0 -3
BITMAP
00
00
00
66
66
66
00
00
00
00
00
00
00
00
00
ENDCHAR
STARTCHAR numbersign
ENCODING 35
SWIDTH 548 0
DWIDTH 8 0
BBX 8 15 0 -3
BITMAP
00
00
00
36
36
7F
36
36
36
7F
36
36
00
00
00
ENDCHAR
STARTCHAR dollar
ENCODING 36
SWIDTH 548 0
DWIDTH 8 0
BBX 8 15 0 -3
BITMAP
00
18
18
3C
66
60
30
18
0C
06
66
3C
18
18
00
ENDCHAR
STARTCHAR percent
ENCODING 37
SWIDTH 548 0
DWIDTH 8 0
BBX 8 15 0 -3
BITMAP
00
00
70
D8
DA
76
0C
18
30
6E
5B
1B
0E
00
00
ENDCHAR
STARTCHAR ampersand
ENCODING 38
SWIDTH 548 0
DWIDTH 8 0
BBX 8 15 0 -3
BITMAP
00
00
00
38
6C
6C
38
60
6F
66
66
3B
00
00
00
ENDCHAR
STARTCHAR quotesingle
ENCODING 39
SWIDTH 548 0
DWIDTH 8 0
BBX 8 15 0 -3
BITMAP
00
00
00
18
18
18
00
00
00
00
00
00
00
00
00
ENDCHAR
STARTCHAR parenleft
ENCODING 40
SWIDTH 548 0
DWIDTH 8 0
BBX 8 15 0 -3
BITMAP
00
00
00
0C
18
18
30
30
30
30
30
18
18
0C
00
ENDCHAR
STARTCHAR parenright
ENCODING 41
SWIDTH 548 0
DWIDTH 8 0
BBX 8 15 0 -3
BITMAP
00
00
00
30
18
18
0C
0C
0C
0C
0C
18
18
30
00
ENDCHAR
STARTCHAR asterisk
ENCODING 42
SWIDTH 548 0
DWIDTH 8 0
BBX 8 15 0 -3
BITMAP
00
00
00
00
00
36
1C
7F
1C
36
00
00
00
00
00
ENDCHAR
STARTCHAR plus
ENCODING 43
SWIDTH 548 0
DWIDTH 8 0
BBX 8 15 0 -3
BITMAP
00
00
00
00
00
18
18
7E
18
18
00
00
00
00
00
ENDCHAR
STARTCHAR comma
ENCODING 44
SWIDTH 548 0
DWIDTH 8 0
BBX 8 15 0 -3
BITMAP
00
00
00
00
00
00
00
00
00
00
1C
1C
0C
18
00
ENDCHAR
STARTCHAR hyphen
ENCODING 45
SWIDTH 548 0
DWIDTH 8 0
BBX 8 15 0 -3
BITMAP
00
00
00
00
00
00
00
7E
00
00
00
00
00
00
00
ENDCHAR
STARTCHAR period
ENCODING 46
SWIDTH 548 0
DWIDTH 8 0
BBX 8 15 0 -3
BITMAP
00
00
00
00
00
00
00
00
00
00
1C
1C
00
00
00
ENDCHAR
STARTCHAR slash
ENCODING 47
SWIDTH 548 0
DWIDTH 8 0
BBX 8 15 0 -3
BITMAP
00
00
00
06
06
0C
0C
18
18
30
30
60
60
00
00
ENDCHAR
STARTCHAR zero
ENCODING 48
SWIDTH 548 0
DWIDTH 8 0
BBX 8 15 0 -3
BITMAP
00
00
00
1E
33
37
37
33
3B
3B
33
1E
00
00
00
ENDCHAR
STARTCHAR one
ENCODING 49
SWIDTH 548 0
DWIDTH 8 0
BBX 8 15 0 -3
BITMAP
00
00
00
0C
1C
7C
0C
0C
0C
0C
0C
0C
00
00
00
ENDCHAR
STARTCHAR two
ENCODING 50
SWIDTH 548 0
DWIDTH 8 0
BBX 8 15 0 -3
BITMAP
00
00
00
3C
66
66
06
0C
18
30
60
7E
00
00
00
ENDCHAR
STARTCHAR three
ENCODING 51
SWIDTH 548 0
DWIDTH 8 0
BBX 8 15 0 -3
BITMAP
00
00
00
3C
66
66
06
1C
06
66
66
3C
00
00
00
ENDCHAR
STARTCHAR four
ENCODING 52
SWIDTH 548 0
DWIDTH 8 0
BBX 8 15 0 -3
BITMAP
00
00
00
30
30
36
36
36
66
7F
06
06
00
00
00
ENDCHAR
STARTCHAR five
ENCODING 53
SWIDTH 548 0
DWIDTH 8 0
BBX 8 15 0 -3
BITMAP
00
00
00
7E
60
60
60
7C
06
06
0C
78
00
00
00
ENDCHAR
STARTCHAR six
ENCODING 54
SWIDTH 548 0
DWIDTH 8 0
BBX 8 15 0 -3
BITMAP
00
00
00
1C
18
30
7C
66
66
66
66
3C
00
00
00
ENDCHAR
STARTCHAR seven
ENCODING 55
SWIDTH 548 0
DWIDTH 8 0
BBX 8 15 0 -3
BITMAP
00
00
00
7E
06
0C
0C
18
18
30
30
30
00
00
00
ENDCHAR
STARTCHAR eight
ENCODING 56
SWIDTH 548 0
DWIDTH 8 0
BBX 8 15 0 -3
BITMAP
00
00
00
3C
66
66
76
3C
6E
66
66
3C
00
00
00
ENDCHAR
STARTCHAR nine
ENCODING 57
SWIDTH 548 0
DWIDTH 8 0
BBX 8 15 0 -3
BITMAP
00
00
00
3C
66
66
66
66
3E
0C
18
38
00
00
00
ENDCHAR
STARTCHAR colon
ENCODING 58
SWIDTH 548 0
DWIDTH 8 0
BBX 8 15 0 -3
BITMAP
00
00
00
00
00
1C
1C
00
00
00
1C
1C
00
00
00
ENDCHAR
STARTCHAR semicolon
ENCODING 59
SWIDTH 548 0
DWIDTH 8 0
BBX 8 15 0 -3
BITMAP
00
00
00
00
00
1C
1C
00
00
00
1C
1C
0C
18
00
ENDCHAR
STARTCHAR less
ENCODING 60
SWIDTH 548 0
DWIDTH 8 0
BBX 8 15 0 -3
BITMAP
00
00
00
06
0C
18
30
60
30
18
0C
06
00
00
00
ENDCHAR
STARTCHAR equal
ENCODING 61
SWIDTH 548 0
DWIDTH 8 0
BBX 8 15 0 -3
BITMAP
00
00
00
00
00
00
7E
00
7E
00
00
00
00
00
00
ENDCHAR
STARTCHAR greater
ENCODING 62
SWIDTH 548 0
DWIDTH 8 0
BBX 8 15 0 -3
BITMAP
00
00
00
60
30
18
0C
06
0C
18
30
60
00
00
00
ENDCHAR
STARTCHAR question
ENCODING 63
SWIDTH 548 0
DWIDTH 8 0
BBX 8 15 0 -3
BITMAP
00
00
00
3C
66
66
0C
18
18
00
18
18
00
00
00
ENDCHAR
STARTCHAR at
ENCODING 64
SWIDTH 548 0
DWIDTH 8 0
BBX 8 15 0 -3
BITMAP
00
00
00
7E
C3
C3
CF
DB
DB
CF
C0
7F
00
00
00
ENDCHAR
STARTCHAR A
ENCODING 65
SWIDTH 548 0
DWIDTH 8 0
BBX 8 15 0 -3
BITMAP
00
00
00
18
3C
66
66
66
7E
66
66
66
00
00
00
ENDCHAR
STARTCHAR B
ENCODING 66
SWIDTH 548 0
DWIDTH 8 0
BBX 8 15 0 -3
BITMAP
00
00
00
7C
66
66
66
7C
66
66
66
7C
00
00
00
ENDCHAR
STARTCHAR C
ENCODING 67
SWIDTH 548 0
DWIDTH 8 0
BBX 8 15 0 -3
BITMAP
00
00
00
3C
66
66
60
60
60
66
66
3C
00
00
00
ENDCHAR
STARTCHAR D
ENCODING 68
SWIDTH 548 0
DWIDTH 8 0
BBX 8 15 0 -3
BITMAP
00
00
00
78
6C
66
66
66
66
66
6C
78
00
00
00
ENDCHAR
STARTCHAR E
ENCODING 69
SWIDTH 548 0
DWIDTH 8 0
BBX 8 15 0 -3
BITMAP
00
00
00
7E
60
60
60
7C
60
60
60
7E
00
00
00
ENDCHAR
STARTCHAR F
ENCODING 70
SWIDTH 548 0
DWIDTH 8 0
BBX 8 15 0 -3
BITMAP
00
00
00
7E
60
60
60
7C
60
60
60
60
00
00
00
ENDCHAR
STARTCHAR G
ENCODING 71
SWIDTH 548 0
DWIDTH 8 0
BBX 8 15 0 -3
BITMAP
00
00
00
3C
66
66
60
60
6E
66
66
3E
00
00
00
ENDCHAR
STARTCHAR H
ENCODING 72
SWIDTH 548 0
DWIDTH 8 0
BBX 8 15 0 -3
BITMAP
00
00
00
66
66
66
66
7E
66
66
66
66
00
00
00
ENDCHAR
STARTCHAR I
ENCODING 73
SWIDTH 548 0
DWIDTH 8 0
BBX 8 15 0 -3
BITMAP
00
00
00
3C
18
18
18
18
18
18
18
3C
00
00
00
ENDCHAR
STARTCHAR J
ENCODING 74
SWIDTH 548 0
DWIDTH 8 0
BBX 8 15 0 -3
BITMAP
00
00
00
06
06
06
06
06
06
66
66
3C
00
00
00
ENDCHAR
STARTCHAR K
ENCODING 75
SWIDTH 548 0
DWIDTH 8 0
BBX 8 15 0 -3
BITMAP
00
00
00
66
66
6C
6C
78
6C
6C
66
66
00
00
00
ENDCHAR
STARTCHAR L
ENCODING 76
SWIDTH 548 0
DWIDTH 8 0
BBX 8 15 0 -3
BITMAP
00
00
00
60
60
60
60
60
60
60
60
7E
00
00
00
ENDCHAR
STARTCHAR M
ENCODING 77
SWIDTH 548 0
DWIDTH 8 0
BBX 8 15 0 -3
BITMAP
00
00
00
63
63
77
6B
6B
6B
63
63
63
00
00
00
ENDCHAR
STARTCHAR N
ENCODING 78
SWIDTH 548 0
DWIDTH 8 0
BBX 8 15 0 -3
BITMAP
00
00
00
63
63
73
7B
6F
67
63
63
63
00
00
00
ENDCHAR
STARTCHAR O
ENCODING 79
SWIDTH 548 0
DWIDTH 8 0
BBX 8 15 0 -3
BITMAP
00
00
00
3C
66
66
66
66
66
66
66
3C
00
00
00
ENDCHAR
STARTCHAR P
ENCODING 80
SWIDTH 548 0
DWIDTH 8 0
BBX 8 15 0 -3
BITMAP
00
00
00
7C
66
66
66
7C
60
60
60
60
00
00
00
ENDCHAR
STARTCHAR Q
ENCODING 81
SWIDTH 548 0
DWIDTH 8 0
BBX 8 15 0 -3
BITMAP
00
00
00
3C
66
66
66
66
66
66
66
3C
0C
06
00
ENDCHAR
STARTCHAR R
ENCODING 82
SWIDTH 548 0
DWIDTH 8 0
BBX 8 15 0 -3
BITMAP
00
00
00
7C
66
66
66
7C
6C
66
66
66
00
00
00
ENDCHAR
STARTCHAR S
ENCODING 83
SWIDTH 548 0
DWIDTH 8 0
BBX 8 15 0 -3
BITMAP
00
00
00
3C
66
60
30
18
0C
06
66
3C
00
00
00
ENDCHAR
STARTCHAR T
ENCODING 84
SWIDTH 548 0
DWIDTH 8 0
BBX 8 15 0 -3
BITMAP
00
00
00
7E
18
18
18
18
18
18
18
18
00
00
00
ENDCHAR
STARTCHAR U
ENCODING 85
SWIDTH 548 0
DWIDTH 8 0
BBX 8 15 0 -3
BITMAP
00
00
00
66
66
66
66
66
66
66
66
3C
00
00
00
ENDCHAR
STARTCHAR V
ENCODING 86
SWIDTH 548 0
DWIDTH 8 0
BBX 8 15 0 -3
BITMAP
00
00
00
66
66
66
66
66
66
66
3C
18
00
00
00
ENDCHAR
STARTCHAR W
ENCODING 87
SWIDTH 548 0
DWIDTH 8 0
BBX 8 15 0 -3
BITMAP
00
00
00
63
63
63
6B
6B
6B
36
36
36
00
00
00
ENDCHAR
STARTCHAR X
ENCODING 88
SWIDTH 548 0
DWIDTH 8 0
BBX 8 15 0 -3
BITMAP
00
00
00
66
66
34
18
18
2C
66
66
66
00
00
00
ENDCHAR
STARTCHAR Y
ENCODING 89
SWIDTH 548 0
DWIDTH 8 0
BBX 8 15 0 -3
BITMAP
00
00
00
66
66
66
66
3C
18
18
18
18
00
00
00
ENDCHAR
STARTCHAR Z
ENCODING 90
SWIDTH 548 0
DWIDTH 8 0
BBX 8 15 0 -3
BITMAP
00
00
00
7E
06
06
0C
18
30
60
60
7E
00
00
00
ENDCHAR
STARTCHAR bracketleft
ENCODING 91
SWIDTH 548 0
DWIDTH 8 0
BBX 8 15 0 -3
BITMAP
00
00
00
3C
30
30
30
30
30
30
30
30
30
30
3C
ENDCHAR
STARTCHAR backslash
ENCODING 92
SWIDTH 548 0
DWIDTH 8 0
BBX 8 15 0 -3
BITMAP
00
00
00
60
60
30
30
18
18
0C
0C
06
06
00
00
ENDCHAR
STARTCHAR bracketright
ENCODING 93
SWIDTH 548 0
DWIDTH 8 0
BBX 8 15 0 -3
BITMAP
00
00
00
3C
0C
0C
0C
0C
0C
0C
0C
0C
0C
0C
3C
ENDCHAR
STARTCHAR asciicircum
ENCODING 94
SWIDTH 548 0
DWIDTH 8 0
BBX 8 15 0 -3
BITMAP
00
18
3C
66
00
00
00
00
00
00
00
00
00
00
00
ENDCHAR
STARTCHAR underscore
ENCODING 95
SWIDTH 548 0
DWIDTH 8 0
BBX 8 15 0 -3
BITMAP
00
00
00
00
00
00
00
00
00
00
00
00
00
00
FF
ENDCHAR
STARTCHAR grave
ENCODING 96
SWIDTH 548 0
DWIDTH 8 0
BBX 8 15 0 -3
BITMAP
00
38
18
0C
00
00
00
00
00
00
00
00
00
00
00
ENDCHAR
STARTCHAR a
ENCODING 97
SWIDTH 548 0
DWIDTH 8 0
BBX 8 15 0 -3
BITMAP
00
00
00
00
00
3C
06
06
3E
66
66
3E
00
00
00
ENDCHAR
STARTCHAR b
ENCODING 98
SWIDTH 548 0
DWIDTH 8 0
BBX 8 15 0 -3
BITMAP
00
00
00
60
60
7C
66
66
66
66
66
7C
00
00
00
ENDCHAR
STARTCHAR c
ENCODING 99
SWIDTH 548 0
DWIDTH 8 0
BBX 8 15 0 -3
BITMAP
00
00
00
00
00
3C
66
60
60
60
66
3C
00
00
00
ENDCHAR
STARTCHAR d
ENCODING 100
SWIDTH 548 0
DWIDTH 8 0
BBX 8 15 0 -3
BITMAP
00
00
00
06
06
3E
66
66
66
66
66
3E
00
00
00
ENDCHAR
STARTCHAR e
ENCODING 101
SWIDTH 548 0
DWIDTH 8 0
BBX 8 15 0 -3
BITMAP
00
00
00
00
00
3C
66
66
7E
60
60
3C
00
00
00
ENDCHAR
STARTCHAR f
ENCODING 102
SWIDTH 548 0
DWIDTH 8 0
BBX 8 15 0 -3
BITMAP
00
00
00
1E
30
30
30
7E
30
30
30
30
00
00
00
ENDCHAR
STARTCHAR g
ENCODING 103
SWIDTH 548 0
DWIDTH 8 0
BBX 8 15 0 -3
BITMAP
00
00
00
00
00
3E
66
66
66
66
66
3E
06
06
7C
ENDCHAR
STARTCHAR h
ENCODING 104
SWIDTH 548 0
DWIDTH 8 0
BBX 8 15 0 -3
BITMAP
00
00
00
60
60
7C
66
66
66
66
66
66
00
00
00
ENDCHAR
STARTCHAR i
ENCODING 105
SWIDTH 548 0
DWIDTH 8 0
BBX 8 15 0 -3
BITMAP
00
00
18
18
00
78
18
18
18
18
18
7E
00
00
00
ENDCHAR
STARTCHAR j
ENCODING 106
SWIDTH 548 0
DWIDTH 8 0
BBX 8 15 0 -3
BITMAP
00
00
0C
0C
00
3C
0C
0C
0C
0C
0C
0C
0C
0C
78
ENDCHAR
STARTCHAR k
ENCODING 107
SWIDTH 548 0
DWIDTH 8 0
BBX 8 15 0 -3
BITMAP
00
00
00
60
60
66
66
6C
78
6C
66
66
00
00
00
ENDCHAR
STARTCHAR l
ENCODING 108
SWIDTH 548 0
DWIDTH 8 0
BBX 8 15 0 -3
BITMAP
00
00
00
78
18
18
18
18
18
18
18
7E
00
00
00
ENDCHAR
STARTCHAR m
ENCODING 109
SWIDTH 548 0
DWIDTH 8 0
BBX 8 15 0 -3
BITMAP
00
00
00
00
00
7E
6B
6B
6B
6B
6B
63
00
00
00
ENDCHAR
STARTCHAR n
ENCODING 110
SWIDTH 548 0
DWIDTH 8 0
BBX 8 15 0 -3
BITMAP
00
00
00
00
00
7C
66
66
66
66
66
66
00
00
00
ENDCHAR
STARTCHAR o
ENCODING 111
SWIDTH 548 0
DWIDTH 8 0
BBX 8 15 0 -3
BITMAP
00
00
00
00
00
3C
66
66
66
66
66
3C
00
00
00
ENDCHAR
STARTCHAR p
ENCODING 112
SWIDTH 548 0
DWIDTH 8 0
BBX 8 15 0 -3
BITMAP
00
00
00
00
00
7C
66
66
66
66
66
7C
60
60
60
ENDCHAR
STARTCHAR q
ENCODING 113
SWIDTH 548 0
DWIDTH 8 0
BBX 8 15 0 -3
BITMAP
00
00
00
00
00
3E
66
66
66
66
66
3E
06
06
06
ENDCHAR
STARTCHAR r
ENCODING 114
SWIDTH 548 0
DWIDTH 8 0
BBX 8 15 0 -3
BITMAP
00
00
00
00
00
66
6E
70
60
60
60
60
00
00
00
ENDCHAR
STARTCHAR s
ENCODING 115
SWIDTH 548 0
DWIDTH 8 0
BBX 8 15 0 -3
BITMAP
00
00
00
00
00
3E
60
60
3C
06
06
7C
00
00
00
ENDCHAR
STARTCHAR t
ENCODING 116
SWIDTH 548 0
DWIDTH 8 0
BBX 8 15 0 -3
BITMAP
00
00
00
30
30
7E
30
30
30
30
30
1E
00
00
00
ENDCHAR
STARTCHAR u
ENCODING 117
SWIDTH 548 0
DWIDTH 8 0
BBX 8 15 0 -3
BITMAP
00
00
00
00
00
66
66
66
66
66
66
3E
00
00
00
ENDCHAR
STARTCHAR v
ENCODING 118
SWIDTH 548 0
DWIDTH 8 0
BBX 8 15 0 -3
BITMAP
00
00
00
00
00
66
66
66
66
66
3C
18
00
00
00
ENDCHAR
STARTCHAR w
ENCODING 119
SWIDTH 548 0
DWIDTH 8 0
BBX 8 15 0 -3
BITMAP
00
00
00
00
00
63
6B
6B
6B
6B
36
36
00
00
00
ENDCHAR
STARTCHAR x
ENCODING 120
SWIDTH 548 0
DWIDTH 8 0
BBX 8 15 0 -3
BITMAP
00
00
00
00
00
66
66
3C
18
3C
66
66
00
00
00
ENDCHAR
STARTCHAR y
ENCODING 121
SWIDTH 548 0
DWIDTH 8 0
BBX 8 15 0 -3
BITMAP
00
00
00
00
00
66
66
66
66
66
66
3C
0C
18
F0
ENDCHAR
STARTCHAR z
ENCODING 122
SWIDTH 548 0
DWIDTH 8 0
BBX 8 15 0 -3
BITMAP
00
00
00
00
00
7E
06
0C
18
30
60
7E
00
00
00
ENDCHAR
STARTCHAR braceleft
ENCODING 123
SWIDTH 548 0
DWIDTH 8 0
BBX 8 15 0 -3
BITMAP
00
00
00
0C
18
18
18
30
60
30
18
18
18
0C
00
ENDCHAR
STARTCHAR bar
ENCODING 124
SWIDTH 548 0
DWIDTH 8 0
BBX 8 15 0 -3
BITMAP
00
00
00
18
18
18
18
18
18
18
18
18
18
18
18
ENDCHAR
STARTCHAR braceright
ENCODING 125
SWIDTH 548 0
DWIDTH 8 0
BBX 8 15 0 -3
BITMAP
00
00
00
30
18
18
18
0C
06
0C
18
18
18
30
00
ENDCHAR
STARTCHAR asciitilde
ENCODING 126
SWIDTH 548 0
DWIDTH 8 0
BBX 8 15 0 -3
BITMAP
00
00
00
71
DB
8E
00
00
00
00
00
00
00
00
00
ENDCHAR
STARTCHAR uni007F
ENCODING 127
SWIDTH 548 0
DWIDTH 8 0
BBX 8 15 0 -3
BITMAP
00
00
00
7E
7E
7E
7E
7E
7E
7E
7E
7E
00
00
00
ENDCHAR
STARTCHAR uni0080
ENCODING 128
SWIDTH 548 0
DWIDTH 8 0
BBX 8 15 0 -3
BITMAP
00
00
00
7E
7E
7E
7E
7E
7E
7E
7E
7E
00
00
00
ENDCHAR
STARTCHAR uni0081
ENCODING 129
SWIDTH 548 0
DWIDTH 8 0
BBX 8 15 0 -3
BITMAP
00
00
00
7E
7E
7E
7E
7E
7E
7E
7E
7E
00
00
00
ENDCHAR
STARTCHAR uni0082
ENCODING 130
SWIDTH 548 0
DWIDTH 8 0
BBX 8 15 0 -3
BITMAP
00
00
00
7E
7E
7E
7E
7E
7E
7E
7E
7E
00
00
00
ENDCHAR
STARTCHAR uni0083
ENCODING 131
SWIDTH 548 0
DWIDTH 8 0
BBX 8 15 0 -3
BITMAP
00
00
00
7E
7E
7E
7E
7E
7E
7E
7E
7E
00
00
00
ENDCHAR
STARTCHAR uni0084
ENCODING 132
SWIDTH 548 0
DWIDTH 8 0
BBX 8 15 0 -3
BITMAP
00
00
00
7E
7E
7E
7E
7E
7E
7E
7E
7E
00
00
00
ENDCHAR
STARTCHAR uni0085
ENCODING 133
SWIDTH 548 0
DWIDTH 8 0
BBX 8 15 0 -3
BITMAP
00
00
00
7E
7E
7E
7E
7E
7E
7E
7E
7E
00
00
00
ENDCHAR
STARTCHAR uni0086
ENCODING 134
SWIDTH 548 0
DWIDTH 8 0
BBX 8 15 0 -3
BITMAP
00
00
00
7E
7E
7E
7E
7E
7E
7E
7E
7E
00
00
00
ENDCHAR
STARTCHAR uni0087
ENCODING 135
SWIDTH 548 0
DWIDTH 8 0
BBX 8 15 0 -3
BITMAP
00
00
00
7E
7E
7E
7E
7E
7E
7E
7E
7E
00
00
00
ENDCHAR
STARTCHAR uni0088
ENCODING 136
SWIDTH 548 0
DWIDTH 8 0
BBX 8 15 0 -3
BITMAP
00
00
00
7E
7E
7E
7E
7E
7E
7E
7E
7E
00
00
00
ENDCHAR
STARTCHAR uni0089
ENCODING 137
SWIDTH 548 0
DWIDTH 8 0
BBX 8 15 0 -3
BITMAP
00
00
00
7E
7E
7E
7E
7E
7E
7E
7E
7E
00
00
00
ENDCHAR
STARTCHAR uni008A
ENCODING 138
SWIDTH 548 0
DWIDTH 8 0
BBX 8 15 0 -3
BITMAP
00
00
00
7E
7E
7E
7E
7E
7E
7E
7E
7E
00
00
00
ENDCHAR
STARTCHAR uni008B
ENCODING 139
SWIDTH 548 0
DWIDTH 8 0
BBX 8 15 0 -3
BITMAP
00
00
00
7E
7E
7E
7E
7E
7E
7E
7E
7E
00
00
00
ENDCHAR
STARTCHAR uni008C
ENCODING 140
SWIDTH 548 0
DWIDTH 8 0
BBX 8 15 0 -3
BITMAP
00
00
00
7E
7E
7E
7E
7E
7E
7E
7E
7E
00
00
00
ENDCHAR
STARTCHAR uni008D
ENCODING 141
SWIDTH 548 0
DWIDTH 8 0
BBX 8 15 0 -3
BITMAP
00
00
00
7E
7E
7E
7E
7E
7E
7E
7E
7E
00
00
00
ENDCHAR
STARTCHAR uni008E
ENCODING 142
SWIDTH 548 0
DWIDTH 8 0
BBX 8 15 0 -3
BITMAP
00
00
00
7E
7E
7E
7E
7E
7E
7E
7E
7E
00
00
00
ENDCHAR
STARTCHAR uni008F
ENCODING 143
SWIDTH 548 0
DWIDTH 8 0
BBX 8 15 0 -3
BITMAP
00
00
00
7E
7E
7E
7E
7E
7E
7E
7E
7E
00
00
00
ENDCHAR
STARTCHAR uni0090
ENCODING 144
SWIDTH 548 0
DWIDTH 8 0
BBX 8 15 0 -3
BITMAP
00
00
00
7E
7E
7E
7E
7E
7E
7E
7E
7E
00
00
00
ENDCHAR
STARTCHAR uni0091
ENCODING 145
SWIDTH 548 0
DWIDTH 8 0
BBX 8 15 0 -3
BITMAP
00
00
00
0C
18
1C
1C
00
00
00
00
00
00
00
00
ENDCHAR
STARTCHAR uni0092
ENCODING 146
SWIDTH 548 0
DWIDTH 8 0
BBX 8 15 0 -3
BITMAP
00
00
00
1C
1C
0C
18
00
00
00
00
00
00
00
00
ENDCHAR
STARTCHAR uni0093
ENCODING 147
SWIDTH 548 0
DWIDTH 8 0
BBX 8 15 0 -3
BITMAP
00
00
00
7E
7E
7E
7E
7E
7E
7E
7E
7E
00
00
00
ENDCHAR
STARTCHAR uni0094
ENCODING 148
SWIDTH 548 0
DWIDTH 8 0
BBX 8 15 0 -3
BITMAP
00
00
00
7E
7E
7E
7E
7E
7E
7E
7E
7E
00
00
00
ENDCHAR
STARTCHAR uni0095
ENCODING 149
SWIDTH 548 0
DWIDTH 8 0
BBX 8 15 0 -3
BITMAP
00
00
00
7E
7E
7E
7E
7E
7E
7E
7E
7E
00
00
00
ENDCHAR
STARTCHAR uni0096
ENCODING 150
SWIDTH 548 0
DWIDTH 8 0
BBX 8 15 0 -3
BITMAP
00
00
00
7E
7E
7E
7E
7E
7E
7E
7E
7E
00
00
00
ENDCHAR
STARTCHAR uni0097
ENCODING 151
SWIDTH 548 0
DWIDTH 8 0
BBX 8 15 0 -3
BITMAP
00
00
00
7E
7E
7E
7E
7E
7E
7E
7E
7E
00
00
00
ENDCHAR
STARTCHAR uni0098
ENCODING 152
SWIDTH 548 0
DWIDTH 8 0
BBX 8 15 0 -3
BITMAP
00
00
00
7E
7E
7E
7E
7E
7E
7E
7E
7E
00
00
00
ENDCHAR
STARTCHAR uni0099
ENCODING 153
SWIDTH 548 0
DWIDTH 8 0
BBX 8 15 0 -3
BITMAP
00
00
00
7E
7E
7E
7E
7E
7E
7E
7E
7E
00
00
00
ENDCHAR
STARTCHAR uni009A
ENCODING 154
SWIDTH 548 0
DWIDTH 8 0
BBX 8 15 0 -3
BITMAP
00
00
00
7E
7E
7E
7E
7E
7E
7E
7E
7E
00
00
00
ENDCHAR
STARTCHAR uni009B
ENCODING 155
SWIDTH 548 0
DWIDTH 8 0
BBX 8 15 0 -3
BITMAP
00
00
00
7E
7E
7E
7E
7E
7E
7E
7E
7E
00
00
00
ENDCHAR
STARTCHAR uni009C
ENCODING 156
SWIDTH 548 0
DWIDTH 8 0
BBX 8 15 0 -3
BITMAP
00
00
00
7E
7E
7E
7E
7E
7E
7E
7E
7E
00
00
00
ENDCHAR
STARTCHAR uni009D
ENCODING 157
SWIDTH 548 0
DWIDTH 8 0
BBX 8 15 0 -3
BITMAP
00
00
00
7E
7E
7E
7E
7E
7E
7E
7E
7E
00
00
00
ENDCHAR
STARTCHAR uni009E
ENCODING 158
SWIDTH 548 0
DWIDTH 8 0
BBX 8 15 0 -3
BITMAP
00
00
00
7E
7E
7E
7E
7E
7E
7E
7E
7E
00
00
00
ENDCHAR
STARTCHAR uni009F
ENCODING 159
SWIDTH 548 0
DWIDTH 8 0
BBX 8 15 0 -3
BITMAP
00
00
00
7E
7E
7E
7E
7E
7E
7E
7E
7E
00
00
00
ENDCHAR
STARTCHAR uni00A0
ENCODING 160
SWIDTH 548 0
DWIDTH 8 0
BBX 8 15 0 -3
BITMAP
00
00
00
00
00
00
00
00
00
00
00
00
00
00
00
ENDCHAR
STARTCHAR exclamdown
ENCODING 161
SWIDTH 548 0
DWIDTH 8 0
BBX 8 15 0 -3
BITMAP
00
00
00
00
00
00
18
18
00
18
18
3C
3C
3C
18
ENDCHAR
STARTCHAR cent
ENCODING 162
SWIDTH 548 0
DWIDTH 8 0
BBX 8 15 0 -3
BITMAP
00
00
00
18
18
3C
66
60
60
66
3C
18
18
00
00
ENDCHAR
STARTCHAR sterling
ENCODING 163
SWIDTH 548 0
DWIDTH 8 0
BBX 8 15 0 -3
BITMAP
00
00
00
3C
66
60
60
FC
60
60
C0
FE
00
00
00
ENDCHAR
STARTCHAR currency
ENCODING 164
SWIDTH 548 0
DWIDTH 8 0
BBX 8 15 0 -3
BITMAP
00
00
00
00
66
3C
66
66
3C
66
00
00
00
00
00
ENDCHAR
STARTCHAR yen
ENCODING 165
SWIDTH 548 0
DWIDTH 8 0
BBX 8 15 0 -3
BITMAP
00
00
00
66
66
66
3C
7E
18
7E
18
18
00
00
00
ENDCHAR
STARTCHAR brokenbar
ENCODING 166
SWIDTH 548 0
DWIDTH 8 0
BBX 8 15 0 -3
BITMAP
00
00
00
18
18
18
18
18
00
00
18
18
18
18
18
ENDCHAR
STARTCHAR section
ENCODING 167
SWIDTH 548 0
DWIDTH 8 0
BBX 8 15 0 -3
BITMAP
00
00
00
3C
66
60
38
3C
66
66
3C
1C
06
66
3C
ENDCHAR
STARTCHAR dieresis
ENCODING 168
SWIDTH 548 0
DWIDTH 8 0
BBX 8 15 0 -3
BITMAP
00
00
66
66
00
00
00
00
00
00
00
00
00
00
00
ENDCHAR
STARTCHAR copyright
ENCODING 169
SWIDTH 548 0
DWIDTH 8 0
BBX 8 15 0 -3
BITMAP
00
00
00
7E
C3
99
A5
A1
A5
99
C3
7E
00
00
00
ENDCHAR
STARTCHAR ordfeminine
ENCODING 170
SWIDTH 548 0
DWIDTH 8 0
BBX 8 15 0 -3
BITMAP
00
00
00
3C
06
3E
66
3E
00
7E
00
00
00
00
00
ENDCHAR
STARTCHAR guillemotleft
ENCODING 171
SWIDTH 548 0
DWIDTH 8 0
BBX 8 15 0 -3
BITMAP
00
00
00
00
00
00
00
33
66
CC
66
33
00
00
00
ENDCHAR
STARTCHAR logicalnot
ENCODING 172
SWIDTH 548 0
DWIDTH 8 0
BBX 8 15 0 -3
BITMAP
00
00
00
00
00
00
00
7E
06
06
00
00
00
00
00
ENDCHAR
STARTCHAR uni00AD
ENCODING 173
SWIDTH 548 0
DWIDTH 8 0
BBX 8 15 0 -3
BITMAP
00
00
00
00
00
00
00
7E
00
00
00
00
00
00
00
ENDCHAR
STARTCHAR registered
ENCODING 174
SWIDTH 548 0
DWIDTH 8 0
BBX 8 15 0 -3
BITMAP
00
00
00
7E
C3
B9
A5
A5
B9
A5
C3
7E
00
00
00
ENDCHAR
STARTCHAR macron
ENCODING 175
SWIDTH 548 0
DWIDTH 8 0
BBX 8 15 0 -3
BITMAP
FF
00
00
00
00
00
00
00
00
00
00
00
00
00
00
ENDCHAR
STARTCHAR degree
ENCODING 176
SWIDTH 548 0
DWIDTH 8 0
BBX 8 15 0 -3
BITMAP
00
00
3C
66
66
3C
00
00
00
00
00
00
00
00
00
ENDCHAR
STARTCHAR plusminus
ENCODING 177
SWIDTH 548 0
DWIDTH 8 0
BBX 8 15 0 -3
BITMAP
00
00
00
00
00
18
18
7E
18
18
00
7E
00
00
00
ENDCHAR
STARTCHAR uni00B2
ENCODING 178
SWIDTH 548 0
DWIDTH 8 0
BBX 8 15 0 -3
BITMAP
00
00
00
38
0C
18
30
3C
00
00
00
00
00
00
00
ENDCHAR
STARTCHAR uni00B3
ENCODING 179
SWIDTH 548 0
DWIDTH 8 0
BBX 8 15 0 -3
BITMAP
00
00
00
38
0C
18
0C
38
00
00
00
00
00
00
00
ENDCHAR
STARTCHAR acute
ENCODING 180
SWIDTH 548 0
DWIDTH 8 0
BBX 8 15 0 -3
BITMAP
00
1C
18
30
00
00
00
00
00
00
00
00
00
00
00
ENDCHAR
STARTCHAR uni00B5
ENCODING 181
SWIDTH 548 0
DWIDTH 8 0
BBX 8 15 0 -3
BITMAP
00
00
00
00
00
66
66
66
66
66
66
7B
60
60
C0
ENDCHAR
STARTCHAR paragraph
ENCODING 182
SWIDTH 548 0
DWIDTH 8 0
BBX 8 15 0 -3
BITMAP
00
00
00
1F
3E
7E
7E
7E
3E
1E
06
06
06
06
06
ENDCHAR
STARTCHAR periodcentered
ENCODING 183
SWIDTH 548 0
DWIDTH 8 0
BBX 8 15 0 -3
BITMAP
00
00
00
00
00
00
1C
1C
00
00
00
00
00
00
00
ENDCHAR
STARTCHAR cedilla
ENCODING 184
SWIDTH 548 0
DWIDTH 8 0
BBX 8 15 0 -3
BITMAP
00
00
00
00
00
00
00
00
00
00
00
00
18
0C
38
ENDCHAR
STARTCHAR uni00B9
ENCODING 185
SWIDTH 548 0
DWIDTH 8 0
BBX 8 15 0 -3
BITMAP
00
00
00
18
38
18
18
18
00
00
00
00
00
00
00
ENDCHAR
STARTCHAR ordmasculine
ENCODING 186
SWIDTH 548 0
DWIDTH 8 0
BBX 8 15 0 -3
BITMAP
00
00
00
3C
66
66
66
3C
00
7E
00
00
00
00
00
ENDCHAR
STARTCHAR guillemotright
ENCODING 187
SWIDTH 548 0
DWIDTH 8 0
BBX 8 15 0 -3
BITMAP
00
00
00
00
00
00
00
CC
66
33
66
CC
00
00
00
ENDCHAR
STARTCHAR onequarter
ENCODING 188
SWIDTH 548 0
DWIDTH 8 0
BBX 8 15 0 -3
BITMAP
00
00
60
E0
63
66
6C
18
37
6F
DB
1F
03
00
00
ENDCHAR
STARTCHAR onehalf
ENCODING 189
SWIDTH 548 0
DWIDTH 8 0
BBX 8 15 0 -3
BITMAP
00
00
60
E0
63
66
6C
18
3E
63
C6
0C
0F
00
00
ENDCHAR
STARTCHAR threequarters
ENCODING 190
SWIDTH 548 0
DWIDTH 8 0
BBX 8 15 0 -3
BITMAP
00
00
E0
30
63
36
EC
18
37
6F
DB
1F
03
00
00
ENDCHAR
STARTCHAR questiondown
ENCODING 191
SWIDTH 548 0
DWIDTH 8 0
BBX 8 15 0 -3
BITMAP
00
00
00
00
00
00
18
18
00
18
18
30
66
66
3C
ENDCHAR
STARTCHAR Agrave
ENCODING 192
SWIDTH 548 0
DWIDTH 8 0
BBX 8 15 0 -3
BITMAP
30
18
00
18
3C
66
66
66
7E
66
66
66
00
00
00
ENDCHAR
STARTCHAR Aacute
ENCODING 193
SWIDTH 548 0
DWIDTH 8 0
BBX 8 15 0 -3
BITMAP
0C
18
00
18
3C
66
66
66
7E
66
66
66
00
00
00
ENDCHAR
STARTCHAR Acircumflex
ENCODING 194
SWIDTH 548 0
DWIDTH 8 0
BBX 8 15 0 -3
BITMAP
3C
66
00
18
3C
66
66
66
7E
66
66
66
00
00
00
ENDCHAR
STARTCHAR Atilde
ENCODING 195
SWIDTH 548 0
DWIDTH 8 0
BBX 8 15 0 -3
BITMAP
3B
6E
00
18
3C
66
66
66
7E
66
66
66
00
00
00
ENDCHAR
STARTCHAR Adieresis
ENCODING 196
SWIDTH 548 0
DWIDTH 8 0
BBX 8 15 0 -3
BITMAP
66
66
00
18
3C
66
66
66
7E
66
66
66
00
00
00
ENDCHAR
STARTCHAR Aring
ENCODING 197
SWIDTH 548 0
DWIDTH 8 0
BBX 8 15 0 -3
BITMAP
3C
66
3C
18
3C
66
66
66
7E
66
66
66
00
00
00
ENDCHAR
STARTCHAR AE
ENCODING 198
SWIDTH 548 0
DWIDTH 8 0
BBX 8 15 0 -3
BITMAP
00
00
00
0F
1C
3C
6C
6F
7C
6C
6C
6F
00
00
00
ENDCHAR
STARTCHAR Ccedilla
ENCODING 199
SWIDTH 548 0
DWIDTH 8 0
BBX 8 15 0 -3
BITMAP
00
00
00
3C
66
66
60
60
60
66
66
3C
18
0C
38
ENDCHAR
STARTCHAR Egrave
ENCODING 200
SWIDTH 548 0
DWIDTH 8 0
BBX 8 15 0 -3
BITMAP
30
18
00
7E
60
60
60
7C
60
60
60
7E
00
00
00
ENDCHAR
STARTCHAR Eacute
ENCODING 201
SWIDTH 548 0
DWIDTH 8 0
BBX 8 15 0 -3
BITMAP
0C
18
00
7E
60
60
60
7C
60
60
60
7E
00
00
00
ENDCHAR
STARTCHAR Ecircumflex
ENCODING 202
SWIDTH 548 0
DWIDTH 8 0
BBX 8 15 0 -3
BITMAP
3C
66
00
7E
60
60
60
7C
60
60
60
7E
00
00
00
ENDCHAR
STARTCHAR Edieresis
ENCODING 203
SWIDTH 548 0
DWIDTH 8 0
BBX 8 15 0 -3
BITMAP
66
66
00
7E
60
60
60
7C
60
60
60
7E
00
00
00
ENDCHAR
STARTCHAR Igrave
ENCODING 204
SWIDTH 548 0
DWIDTH 8 0
BBX 8 15 0 -3
BITMAP
30
18
00
3C
18
18
18
18
18
18
18
3C
00
00
00
ENDCHAR
STARTCHAR Iacute
ENCODING 205
SWIDTH 548 0
DWIDTH 8 0
BBX 8 15 0 -3
BITMAP
0C
18
00
3C
18
18
18
18
18
18
18
3C
00
00
00
ENDCHAR
STARTCHAR Icircumflex
ENCODING 206
SWIDTH 548 0
DWIDTH 8 0
BBX 8 15 0 -3
BITMAP
3C
66
00
3C
18
18
18
18
18
18
18
3C
00
00
00
ENDCHAR
STARTCHAR Idieresis
ENCODING 207
SWIDTH 548 0
DWIDTH 8 0
BBX 8 15 0 -3
BITMAP
66
66
00
3C
18
18
18
18
18
18
18
3C
00
00
00
ENDCHAR
STARTCHAR Eth
ENCODING 208
SWIDTH 548 0
DWIDTH 8 0
BBX 8 15 0 -3
BITMAP
00
00
00
78
6C
66
66
F6
66
66
6C
78
00
00
00
ENDCHAR
STARTCHAR Ntilde
ENCODING 209
SWIDTH 548 0
DWIDTH 8 0
BBX 8 15 0 -3
BITMAP
3B
6E
00
63
63
73
7B
6F
67
63
63
63
00
00
00
ENDCHAR
STARTCHAR Ograve
ENCODING 210
SWIDTH 548 0
DWIDTH 8 0
BBX 8 15 0 -3
BITMAP
30
18
00
3C
66
66
66
66
66
66
66
3C
00
00
00
ENDCHAR
STARTCHAR Oacute
ENCODING 211
SWIDTH 548 0
DWIDTH 8 0
BBX 8 15 0 -3
BITMAP
0C
18
00
3C
66
66
66
66
66
66
66
3C
00
00
00
ENDCHAR
STARTCHAR Ocircumflex
ENCODING 212
SWIDTH 548 0
DWIDTH 8 0
BBX 8 15 0 -3
BITMAP
3C
66
00
3C
66
66
66
66
66
66
66
3C
00
00
00
ENDCHAR
STARTCHAR Otilde
ENCODING 213
SWIDTH 548 0
DWIDTH 8 0
BBX 8 15 0 -3
BITMAP
3B
6E
00
3C
66
66
66
66
66
66
66
3C
00
00
00
ENDCHAR
STARTCHAR Odieresis
ENCODING 214
SWIDTH 548 0
DWIDTH 8 0
BBX 8 15 0 -3
BITMAP
66
66
00
3C
66
66
66
66
66
66
66
3C
00
00
00
ENDCHAR
STARTCHAR multiply
ENCODING 215
SWIDTH 548 0
DWIDTH 8 0
BBX 8 15 0 -3
BITMAP
00
00
00
00
42
66
3C
18
3C
66
42
00
00
00
00
ENDCHAR
STARTCHAR Oslash
ENCODING 216
SWIDTH 548 0
DWIDTH 8 0
BBX 8 15 0 -3
BITMAP
00
00
00
3E
66
6E
6E
7E
76
76
66
7C
00
00
00
ENDCHAR
STARTCHAR Ugrave
ENCODING 217
SWIDTH 548 0
DWIDTH 8 0
BBX 8 15 0 -3
BITMAP
30
18
00
66
66
66
66
66
66
66
66
3C
00
00
00
ENDCHAR
STARTCHAR Uacute
ENCODING 218
SWIDTH 548 0
DWIDTH 8 0
BBX 8 15 0 -3
BITMAP
0C
18
00
66
66
66
66
66
66
66
66
3C
00
00
00
ENDCHAR
STARTCHAR Ucircumflex
ENCODING 219
SWIDTH 548 0
DWIDTH 8 0
BBX 8 15 0 -3
BITMAP
3C
66
00
66
66
66
66
66
66
66
66
3C
00
00
00
ENDCHAR
STARTCHAR Udieresis
ENCODING 220
SWIDTH 548 0
DWIDTH 8 0
BBX 8 15 0 -3
BITMAP
66
66
00
66
66
66
66
66
66
66
66
3C
00
00
00
ENDCHAR
STARTCHAR Yacute
ENCODING 221
SWIDTH 548 0
DWIDTH 8 0
BBX 8 15 0 -3
BITMAP
0C
18
00
66
66
66
66
3C
18
18
18
18
00
00
00
ENDCHAR
STARTCHAR Thorn
ENCODING 222
SWIDTH 548 0
DWIDTH 8 0
BBX 8 15 0 -3
BITMAP
00
00
00
60
60
7C
66
66
66
7C
60
60
00
00
00
ENDCHAR
STARTCHAR germandbls
ENCODING 223
SWIDTH 548 0
DWIDTH 8 0
BBX 8 15 0 -3
BITMAP
00
00
00
38
6C
6C
6C
66
66
66
66
6C
00
00
00
ENDCHAR
STARTCHAR agrave
ENCODING 224
SWIDTH 548 0
DWIDTH 8 0
BBX 8 15 0 -3
BITMAP
00
70
30
18
00
3C
06
06
3E
66
66
3E
00
00
00
ENDCHAR
STARTCHAR aacute
ENCODING 225
SWIDTH 548 0
DWIDTH 8 0
BBX 8 15 0 -3
BITMAP
00
0E
0C
18
00
3C
06
06
3E
66
66
3E
00
00
00
ENDCHAR
STARTCHAR acircumflex
ENCODING 226
SWIDTH 548 0
DWIDTH 8 0
BBX 8 15 0 -3
BITMAP
00
18
3C
66
00
3C
06
06
3E
66
66
3E
00
00
00
ENDCHAR
STARTCHAR atilde
ENCODING 227
SWIDTH 548 0
DWIDTH 8 0
BBX 8 15 0 -3
BITMAP
00
71
DB
8E
00
3C
06
06
3E
66
66
3E
00
00
00
ENDCHAR
STARTCHAR adieresis
ENCODING 228
SWIDTH 548 0
DWIDTH 8 0
BBX 8 15 0 -3
BITMAP
00
00
66
66
00
3C
06
06
3E
66
66
3E
00
00
00
ENDCHAR
STARTCHAR aring
ENCODING 229
SWIDTH 548 0
DWIDTH 8 0
BBX 8 15 0 -3
BITMAP
00
3C
66
3C
00
3C
06
06
3E
66
66
3E
00
00
00
ENDCHAR
STARTCHAR ae
ENCODING 230
SWIDTH 548 0
DWIDTH 8 0
BBX 8 15 0 -3
BITMAP
00
00
00
00
00
6E
1B
1B
7F
D8
D8
77
00
00
00
ENDCHAR
STARTCHAR ccedilla
ENCODING 231
SWIDTH 548 0
DWIDTH 8 0
BBX 8 15 0 -3
BITMAP
00
00
00
00
00
3C
66
60
60
60
66
3C
18
0C
38
ENDCHAR
STARTCHAR egrave
ENCODING 232
SWIDTH 548 0
DWIDTH 8 0
BBX 8 15 0 -3
BITMAP
00
70
30
18
00
3C
66
66
7E
60
60
3C
00
00
00
ENDCHAR
STARTCHAR eacute
ENCODING 233
SWIDTH 548 0
DWIDTH 8 0
BBX 8 15 0 -3
BITMAP
00
0E
0C
18
00
3C
66
66
7E
60
60
3C
00
00
00
ENDCHAR
STARTCHAR ecircumflex
ENCODING 234
SWIDTH 548 0
DWIDTH 8 0
BBX 8 15 0 -3
BITMAP
00
18
3C
66
00
3C
66
66
7E
60
60
3C
00
00
00
ENDCHAR
STARTCHAR edieresis
ENCODING 235
SWIDTH 548 0
DWIDTH 8 0
BBX 8 15 0 -3
BITMAP
00
00
66
66
00
3C
66
66
7E
60
60
3C
00
00
00
ENDCHAR
STARTCHAR igrave
ENCODING 236
SWIDTH 548 0
DWIDTH 8 0
BBX 8 15 0 -3
BITMAP
00
70
30
18
00
78
18
18
18
18
18
7E
00
00
00
ENDCHAR
STARTCHAR iacute
ENCODING 237
SWIDTH 548 0
DWIDTH 8 0
BBX 8 15 0 -3
BITMAP
00
0E
0C
18
00
78
18
18
18
18
18
7E
00
00
00
ENDCHAR
STARTCHAR icircumflex
ENCODING 238
SWIDTH 548 0
DWIDTH 8 0
BBX 8 15 0 -3
BITMAP
00
18
3C
66
00
78
18
18
18
18
18
7E
00
00
00
ENDCHAR
STARTCHAR idieresis
ENCODING 239
SWIDTH 548 0
DWIDTH 8 0
BBX 8 15 0 -3
BITMAP
00
00
66
66
00
78
18
18
18
18
18
7E
00
00
00
ENDCHAR
STARTCHAR eth
ENCODING 240
SWIDTH 548 0
DWIDTH 8 0
BBX 8 15 0 -3
BITMAP
00
00
00
36
18
6C
1E
66
66
66
66
3C
00
00
00
ENDCHAR
STARTCHAR ntilde
ENCODING 241
SWIDTH 548 0
DWIDTH 8 0
BBX 8 15 0 -3
BITMAP
00
71
DB
8E
00
7C
66
66
66
66
66
66
00
00
00
ENDCHAR
STARTCHAR ograve
ENCODING 242
SWIDTH 548 0
DWIDTH 8 0
BBX 8 15 0 -3
BITMAP
00
70
30
18
00
3C
66
66
66
66
66
3C
00
00
00
ENDCHAR
STARTCHAR oacute
ENCODING 243
SWIDTH 548 0
DWIDTH 8 0
BBX 8 15 0 -3
BITMAP
00
0E
0C
18
00
3C
66
66
66
66
66
3C
00
00
00
ENDCHAR
STARTCHAR ocircumflex
ENCODING 244
SWIDTH 548 0
DWIDTH 8 0
BBX 8 15 0 -3
BITMAP
00
18
3C
66
00
3C
66
66
66
66
66
3C
00
00
00
ENDCHAR
STARTCHAR otilde
ENCODING 245
SWIDTH 548 0
DWIDTH 8 0
BBX 8 15 0 -3
BITMAP
00
71
DB
8E
00
3C
66
66
66
66
66
3C
00
00
00
ENDCHAR
STARTCHAR odieresis
ENCODING 246
SWIDTH 548 0
DWIDTH 8 0
BBX 8 15 0 -3
BITMAP
00
00
66
66
00
3C
66
66
66
66
66
3C
00
00
00
ENDCHAR
STARTCHAR divide
ENCODING 247
SWIDTH 548 0
DWIDTH 8 0
BBX 8 15 0 -3
BITMAP
00
00
00
00
18
18
00
7E
00
18
18
00
00
00
00
ENDCHAR
STARTCHAR oslash
ENCODING 248
SWIDTH 548 0
DWIDTH 8 0
BBX 8 15 0 -3
BITMAP
00
00
00
00
00
3E
66
6E
7E
76
66
7C
00
00
00
ENDCHAR
STARTCHAR ugrave
ENCODING 249
SWIDTH 548 0
DWIDTH 8 0
BBX 8 15 0 -3
BITMAP
00
70
30
18
00
66
66
66
66
66
66
3E
00
00
00
ENDCHAR
STARTCHAR uacute
ENCODING 250
SWIDTH 548 0
DWIDTH 8 0
BBX 8 15 0 -3
BITMAP
00
0E
0C
18
00
66
66
66
66
66
66
3E
00
00
00
ENDCHAR
STARTCHAR ucircumflex
ENCODING 251
SWIDTH 548 0
DWIDTH 8 0
BBX 8 15 0 -3
BITMAP
00
18
3C
66
00
66
66
66
66
66
66
3E
00
00
00
ENDCHAR
STARTCHAR udieresis
ENCODING 252
SWIDTH 548 0
DWIDTH 8 0
BBX 8 15 0 -3
BITMAP
00
00
66
66
00
66
66
66
66
66
66
3E
00
00
00
ENDCHAR
STARTCHAR yacute
ENCODING 253
SWIDTH 548 0
DWIDTH 8 0
BBX 8 15 0 -3
BITMAP
00
0E
0C
18
00
66
66
66
66
66
66
3C
0C
18
F0
ENDCHAR
STARTCHAR thorn
ENCODING 254
SWIDTH 548 0
DWIDTH 8 0
BBX 8 15 0 -3
BITMAP
00
00
00
60
60
60
7C
66
66
66
66
7C
60
60
60
ENDCHAR
STARTCHAR ydieresis
ENCODING 255
SWIDTH 548 0
DWIDTH 8 0
BBX 8 15 0 -3
BITMAP
00
00
66
66
00
66
66
66
66
66
66
3C
0C
18
F0
ENDCHAR
ENDFONT
